:SAMPLES-PER-SECOND 30
:FULLY-SPECIFIED
:DEGREES
154
root  -74.7754 41.2885 -3.88459 -172.327 -84.5401 167.129
RightUpLeg  -6.36378 -7.40621 -6.01238
RightLeg  8.41672 0.0958129 1.21491
RightFoot  3.60773 0.13265 -0.857623
RightToes  -1.16417e-010 0 -3.6325e-017
Spine  9.09095 0.0192349 2.76432
Spine1  2.26129 0.998432 -3.96208
HEad  -11.8647 2.73362 -0.381897
LeftShoulder1  7.66504 -11.4402 -44.6765
LeftArm  -6.56659 25.8135 -27.2967
LeftForeArm  35.6625 -48.5372 -10.0143
LeftHand  -0.244104 0.0205437 5.32207
RightShoulder  6.20527 9.34343 42.0325
RightArm  4.56535 -23.5114 29.1629
RightForeArm  -5.50355 39.1369 9.42278
RightHand  -0.953602 2.04928 -15.0793
LeftUpLeg  -2.65035 5.12192 -1.45641
LeftLeg  6.70081 12.0877 -4.16554
LeftFoot  0.611321 -0.766949 7.27955
LeftToes  -1.16419e-010 -9.34044e-011 -2.32061e-011
155
root  -75.2873 41.4234 -3.98232 -179.393 -83.8788 174.347
RightUpLeg  -5.0943 -7.28422 -5.56368
RightLeg  7.24117 0.381479 1.74532
RightFoot  4.04228 0.177079 -1.10595
RightToes  -1.16417e-010 0 -3.6325e-017
Spine  8.23623 0.397471 5.71474
Spine1  2.54197 2.02621 -6.36557
HEad  -10.9819 1.5128 -0.828128
LeftShoulder1  7.51082 -11.3188 -44.1124
LeftArm  -4.82442 24.8062 -25.5719
LeftForeArm  28.3652 -38.1358 -6.99666
LeftHand  -0.244104 0.0205437 5.32207
RightShoulder  6.24538 9.36555 42.2461
RightArm  2.37265 -22.7402 28.9827
RightForeArm  -8.96252 27.9708 6.48711
RightHand  -1.29796 4.40639 -15.5762
LeftUpLeg  -1.58072 4.9482 -0.725933
LeftLeg  6.08954 12.7593 -3.93937
LeftFoot  0.159902 -0.702689 6.95792
LeftToes  -1.16419e-010 -9.34044e-011 -2.32061e-011
156
root  -75.7567 41.5218 -4.12008 175.138 -83.3508 -179.719
RightUpLeg  -3.9343 -7.10881 -5.10203
RightLeg  5.51686 0.238344 2.33721
RightFoot  3.72261 0.100059 -0.565017
RightToes  -1.16417e-010 0 -3.6325e-017
Spine  7.11602 0.843208 7.21905
Spine1  2.81334 2.65565 -7.14885
HEad  -9.96467 0.949091 -1.54405
LeftShoulder1  7.20987 -11.1144 -42.8674
LeftArm  -3.73589 25.1226 -23.386
LeftForeArm  22.3145 -30.4645 -5.3834
LeftHand  -0.244104 0.0205437 5.32207
RightShoulder  6.10742 9.32636 41.3806
RightArm  -0.690843 -22.5936 27.0119
RightForeArm  -8.97337 20.6653 5.38717
RightHand  -1.51072 5.86707 -15.7925
LeftUpLeg  -1.01597 5.01472 0.127661
LeftLeg  5.70313 13.0662 -3.88589
LeftFoot  -0.201953 -0.630432 6.47069
LeftToes  -1.16419e-010 -9.34044e-011 -2.32061e-011
157
root  -76.1998 41.5936 -4.326 174.904 -83.7687 -178.923
RightUpLeg  -2.95702 -7.15043 -5.06605
RightLeg  3.96492 -0.0828546 2.84998
RightFoot  3.82164 0.121698 -0.716013
RightToes  -1.16417e-010 0 -3.6325e-017
Spine  5.8807 0.918332 6.21856
Spine1  2.93935 2.36136 -5.88055
HEad  -9.10715 1.36111 -1.79111
LeftShoulder1  6.45638 -10.4618 -39.9543
LeftArm  -3.96966 26.3989 -21.0346
LeftForeArm  21.0687 -25.9691 -4.43595
LeftHand  -0.244104 0.0205437 5.32207
RightShoulder  5.73063 9.05412 39.5166
RightArm  -5.94646 -22.7677 23.2327
RightForeArm  -6.80848 17.1305 5.89474
RightHand  -1.56165 6.22834 -15.8211
LeftUpLeg  -0.491369 4.81248 0.414954
LeftLeg  4.90643 12.7752 -4.00394
LeftFoot  -0.401902 -0.577278 6.04869
LeftToes  -1.16419e-010 -9.34044e-011 -2.32061e-011
158
root  -76.6126 41.6547 -4.54851 176.321 -84.6854 -179.876
RightUpLeg  -2.22574 -7.41694 -5.13913
RightLeg  3.23483 -0.570015 3.10292
RightFoot  3.83314 0.210265 -1.38311
RightToes  -1.16417e-010 0 -3.6325e-017
Spine  4.90884 0.605162 4.58829
Spine1  2.80731 1.64158 -4.39664
HEad  -8.61975 2.19107 -1.40728
LeftShoulder1  5.35098 -9.35401 -35.525
LeftArm  -5.05587 27.6476 -18.3242
LeftForeArm  22.5769 -23.079 -3.8119
LeftHand  -0.244104 0.0205437 5.32207
RightShoulder  5.06185 8.31709 36.8003
RightArm  -8.77341 -22.2851 18.6404
RightForeArm  -8.10017 15.3759 6.03961
RightHand  -1.48577 5.74552 -15.7036
LeftUpLeg  0.182575 4.4618 0.40305
LeftLeg  3.82922 12.1588 -4.05434
LeftFoot  -0.586842 -0.529606 5.65865
LeftToes  -1.16419e-010 -9.34044e-011 -2.32061e-011
159
root  -76.987 41.6965 -4.74094 176.532 -85.0978 -179.61
RightUpLeg  -1.79642 -7.46476 -5.01596
RightLeg  2.87958 -1.07834 3.24158
RightFoot  3.30019 0.235369 -1.65411
RightToes  -1.16417e-010 0 -3.6325e-017
Spine  3.95847 0.416529 4.12292
Spine1  2.79656 1.38528 -4.29416
HEad  -8.26695 2.67215 -0.721272
LeftShoulder1  4.25171 -8.04905 -30.7033
LeftArm  -6.30798 27.9874 -14.8282
LeftForeArm  21.2217 -20.4019 -3.7336
LeftHand  -0.244104 0.0205437 5.32207
RightShoulder  4.2431 7.16026 33.8509
RightArm  -10.9052 -20.5339 13.7043
RightForeArm  -10.7642 13.0553 6.20252
RightHand  -1.50934 5.59178 -16.1599
LeftUpLeg  0.644677 4.35913 0.5672
LeftLeg  3.10786 11.738 -4.00566
LeftFoot  -0.801232 -0.47186 5.16527
LeftToes  -1.16419e-010 -9.34044e-011 -2.32061e-011
